# xmcd
# 
# Track frame offsets:
#     150
#     12365
#     26255
#     44390
#     57092
#     69627
#     81517
#     93472
#     111642
#     122775
#     144590
# 
# Disc length: 2102
# 
# Revision: 2
# Processed by: cddbd v1.5.2PL0 Copyright (c) Steve Scherf et al.
# Submitted via: BonkEnc v1.0.8
# 
DISCID=9a08340b
DTITLE=Booker T. and The MG's - Doin' Our Thing
DYEAR=1968
DGENRE=Soul
TTITLE0=I Can Dig It
TTITLE1=Expressway (To Your Heart)
TTITLE2=Doin' Our Thing
TTITLE3=You Don't Love Me
TTITLE4=Never My Love
TTITLE5=The Exodus Song
TTITLE6=The Beat Goes On
TTITLE7=Ode To Billie Joe
TTITLE8=Blue On Green
TTITLE9=You Keep Me Hanging On
TTITLE10=Let's Go Get Stoned
EXTD=
EXTT0=
EXTT1=
EXTT2=
EXTT3=
EXTT4=
EXTT5=
EXTT6=
EXTT7=
EXTT8=
EXTT9=
EXTT10=
PLAYORDER=
